<?xml version="1.0" encoding="UTF-8"?>
<svg width="28px" height="25px" viewBox="0 0 28 25" version="1.1" xmlns="http://www.w3.org/2000/svg" xmlns:xlink="http://www.w3.org/1999/xlink">
    <!-- Generator: sketchtool 59.1 (101010) - https://sketch.com -->
    <title>64D850DE-8D34-4955-8C3D-6CA0FB85B11D@2x</title>
    <desc>Created with sketchtool.</desc>
    <g id="Desktop" stroke="none" stroke-width="1" fill="none" fill-rule="evenodd">
        <g id="10-Shoutbox" transform="translate(-944.000000, -350.000000)" fill="#FFFFFF">
            <g id="Shoutbox" transform="translate(920.000000, 319.000000)">
                <g id="Shoutbox-minimized">
                    <g id="atoms/icons/messages" transform="translate(24.000000, 31.000000)">
                        <path d="M21.1772152,11.00701 C21.7648608,11.00701 22.2405063,11.4586142 22.2405063,12.0180642 C22.2405063,12.5775142 21.7648608,13.0291184 21.1772152,13.0291184 L21.1772152,13.0291184 L6.68881013,13.0291184 C6.10116456,13.0291184 5.62551899,12.5775142 5.62551899,12.0180642 C5.62551899,11.4586142 6.10116456,11.00701 6.68881013,11.00701 L6.68881013,11.00701 Z M21.1772152,5.86411432 C21.7648608,5.86411432 22.2405063,6.31571852 22.2405063,6.87516851 C22.2405063,7.42787813 21.7648608,7.8862227 21.1772152,7.8862227 L21.1772152,7.8862227 L6.68881013,7.8862227 C6.10116456,7.8862227 5.62551899,7.42787813 5.62551899,6.87516851 C5.62551899,6.31571852 6.10116456,5.86411432 6.68881013,5.86411432 L6.68881013,5.86411432 Z M25.8734177,16.6352116 C25.8734177,16.7026153 25.7358987,16.8306821 25.5189873,16.8306821 L12.9367089,16.8306821 C12.9196962,16.8306821 12.9041013,16.8306821 12.8870886,16.8306821 C12.849519,16.8374225 12.8126582,16.8374225 12.7750886,16.8441628 C12.742481,16.8509032 12.7098734,16.8576436 12.6772658,16.8643839 C12.6432405,16.8711243 12.6106329,16.884605 12.5773165,16.8913454 C12.544,16.9048261 12.5121013,16.9183068 12.4802025,16.9317875 C12.4504304,16.9452683 12.4220759,16.958749 12.3937215,16.9722297 C12.3604051,16.9924508 12.3292152,17.0126719 12.2987342,17.0396333 C12.2852658,17.0463737 12.2710886,17.053114 12.2583291,17.0598544 L6.20253165,21.8387706 L6.20253165,17.8417363 C6.20253165,17.2822863 5.72688608,16.8306821 5.13924051,16.8306821 L2.48101266,16.8306821 C2.26481013,16.8306821 2.12658228,16.7026153 2.12658228,16.6352116 L2.12658228,2.2108385 C2.12658228,2.14343489 2.26481013,2.02210839 2.48101266,2.02210839 L25.5189873,2.02210839 C25.7358987,2.02210839 25.8734177,2.14343489 25.8734177,2.2108385 L25.8734177,16.6352116 Z M25.5189873,0 L2.48101266,0 C1.11362025,0 0,0.990833109 0,2.2108385 L0,16.6352116 C0,17.8619574 1.11362025,18.8527905 2.48101266,18.8527905 L4.07594937,18.8527905 L4.07594937,23.9889458 C4.07594937,24.3798868 4.31412658,24.7371259 4.6876962,24.9056349 C4.83159494,24.9730386 4.98612658,25 5.13924051,25 C5.38308861,25 5.62410127,24.9191157 5.81832911,24.7708277 L13.3202025,18.8527905 L25.5189873,18.8527905 C26.8870886,18.8527905 28,17.8619574 28,16.6352116 L28,2.2108385 C28,0.990833109 26.8870886,0 25.5189873,0 L25.5189873,0 Z" id="3H"></path>
                    </g>
                </g>
            </g>
        </g>
    </g>
</svg>