<svg width="19px" height="20px" viewBox="0 0 19 20" version="1.1" xmlns="http://www.w3.org/2000/svg" xmlns:xlink="http://www.w3.org/1999/xlink">
    <g id="Desktop" stroke="none" stroke-width="1" fill="none" fill-rule="evenodd">
        <g id="04-Omat-hankkeet" transform="translate(-1240.000000, -412.000000)">
            <g id="Kaavahankkeet-sisältö-/-minimized" transform="translate(147.000000, 165.000000)">
                <g id="Group-8" transform="translate(0.000000, 224.500000)" stroke="#F4F4F4" stroke-width="2">
                    <rect id="Rectangle" x="1" y="1" width="1146" height="61"></rect>
                </g>
                <g id="atoms/icons/edit" transform="translate(1093.500000, 247.500000)" fill="#000000">
                    <path d="M17.2563158,17.1787805 L0.994736842,17.1787805 C0.601578947,17.1787805 0.284210526,17.4892683 0.284210526,17.8739024 C0.284210526,18.2585366 0.601578947,18.5690244 0.994736842,18.5690244 L17.2563158,18.5690244 C17.6494737,18.5690244 17.9668421,18.2585366 17.9668421,17.8739024 C17.9668421,17.4892683 17.6494737,17.1787805 17.2563158,17.1787805 M1.74315789,11.7104878 L9.64421053,3.95292683 L11.6715789,5.94097561 L3.76105263,13.6846341 L1.74315789,13.6846341 L1.74315789,11.7104878 Z M11.8089474,1.82585366 L13.8457895,3.81853659 L12.6805263,4.95853659 L10.6484211,2.9704878 L11.8089474,1.82585366 Z M4.05473684,15.074878 C4.24421053,15.074878 4.42421053,15.0007317 4.55684211,14.8709756 L15.3521053,4.3097561 C15.4847368,4.18 15.5605263,3.99926829 15.5605263,3.81853659 C15.5605263,3.63317073 15.4847368,3.45707317 15.3521053,3.32731707 L12.3110526,0.352195122 C12.1784211,0.222439024 11.9984211,0.148292683 11.8089474,0.148292683 C11.6194737,0.148292683 11.4394737,0.222439024 11.3068421,0.352195122 L0.530526316,10.9319512 C0.397894737,11.0663415 0.322105263,11.242439 0.322105263,11.4231707 L0.322105263,14.3797561 C0.322105263,14.7643902 0.639473684,15.074878 1.03263158,15.074878 L4.05473684,15.074878 Z" id="edit"></path>
                </g>
            </g>
        </g>
    </g>
</svg>