<?xml version="1.0" encoding="UTF-8"?>
<svg width="15px" height="16px" viewBox="0 0 15 16" version="1.1" xmlns="http://www.w3.org/2000/svg" xmlns:xlink="http://www.w3.org/1999/xlink">
    <!-- Generator: sketchtool 59.1 (101010) - https://sketch.com -->
    <title>A6F887E5-5C02-40CB-B1B2-0AEFE71C9F07@2x</title>
    <desc>Created with sketchtool.</desc>
    <g id="Desktop" stroke="none" stroke-width="1" fill="none" fill-rule="evenodd">
        <g id="Käynnistys,-suljettu" transform="translate(-1258.000000, -884.000000)" fill="#1A1919">
            <g id="Sisältö-/-Ehdotusvaiheen-eteneminen" transform="translate(610.000000, 789.500000)">
                <g id="text-field/enabled/input-email-copy-6-molecules/text-field/enabled/input+placeholder" transform="translate(26.000000, 90.800000)">
                    <g id="atoms/icons/info-1C" transform="translate(622.000000, 4.000000)">
                        <path d="M7.50162189,9.88864872 C7.85108136,9.88864872 8.1535138,10.1910811 8.1535138,10.5405406 C8.1535138,10.8895946 7.85108136,11.1920271 7.50162189,11.1920271 C7.15216242,11.1920271 6.84972998,10.8895946 6.84972998,10.5405406 C6.84972998,10.1910811 7.15216242,9.88864872 7.50162189,9.88864872 Z M7.58229717,3.84527012 C8.9262161,3.85986471 9.503108,4.83283768 9.63243233,5.38094578 L9.65596523,5.46510455 C9.78629098,5.99509004 9.70749634,6.96482201 8.69432421,7.78864846 C8.3789188,8.04527008 8.16810798,8.21716197 8.03229717,8.32824305 L8.03229717,8.32824305 L8.03229717,8.74824304 C8.03229717,9.08432412 7.75986474,9.35635114 7.42418906,9.35635114 C7.08810797,9.35635114 6.81608094,9.08432412 6.81608094,8.74824304 L6.81608094,8.74824304 L6.81608094,8.04081062 C6.81608094,7.85999981 6.89675662,7.68810792 7.03581067,7.57256738 C7.03581067,7.57256738 7.22432419,7.4164863 7.92729717,6.84486468 C8.60635123,6.29270253 8.4839188,5.78716199 8.46770258,5.73162145 C8.46283772,5.71581064 8.45310799,5.68054037 8.44986475,5.66432415 C8.41783772,5.53216199 8.25324312,5.06878362 7.5697296,5.06148632 L7.5697296,5.06148632 L7.55554041,5.06148632 C6.8205404,5.06148632 6.67013499,5.65824307 6.66405391,5.68378361 C6.58662148,6.01054037 6.25702688,6.21243226 5.93189174,6.13499983 C5.60513498,6.05716199 5.40324308,5.72959442 5.48108092,5.40243227 C5.60918903,4.86162146 6.20797282,3.84527012 7.55432419,3.84527012 L7.55432419,3.84527012 Z M13.710811,12.631622 C13.710811,13.190676 13.2559461,13.6451355 12.6972975,13.6451355 L2.47094597,13.6451355 C1.91229731,13.6451355 1.45743244,13.190676 1.45743244,12.631622 L1.45743244,2.4056757 C1.45743244,1.84702704 1.91229731,1.39216216 2.47094597,1.39216216 L12.6972975,1.39216216 C13.2559461,1.39216216 13.710811,1.84702704 13.710811,2.4056757 L13.710811,12.631622 Z M12.6972968,0.17594594 L2.47094586,0.17594594 C1.24175673,0.17594594 0.241216228,1.17608105 0.241216228,2.40567561 L0.241216228,12.6316213 C0.241216228,13.8608104 1.24175673,14.8613509 2.47094586,14.8613509 L12.6972968,14.8613509 C13.9268913,14.8613509 14.9270264,13.8608104 14.9270264,12.6316213 L14.9270264,2.40567561 C14.9270264,1.17608105 13.9268913,0.17594594 12.6972968,0.17594594 L12.6972968,0.17594594 Z" id="1C"></path>
                    </g>
                </g>
            </g>
        </g>
    </g>
</svg>