<?xml version="1.0" encoding="UTF-8"?>
<svg width="24px" height="25px" viewBox="0 0 24 25" version="1.1" xmlns="http://www.w3.org/2000/svg" xmlns:xlink="http://www.w3.org/1999/xlink">
    <title>Icon color</title>
    <g id="Desktop" stroke="none" stroke-width="1" fill="none" fill-rule="evenodd">
        <g id="10-Kaavapino-/-Hanke-/-Tietojen-muokkaus-/-Ehdotusvaihe" transform="translate(-659.000000, -1576.000000)">
            <g id="Sisältö-/-Hankkeen-profiili-Copy-2" transform="translate(605.000000, 1335.050000)">
                <rect id="Formi-boksi-tausta" fill="#F5F5F5" x="0.5" y="0.65" width="685" height="419"></rect>
                <g id="text-field/enabled/input-email-copy-9" transform="translate(29.000000, 203.000000)">
                    <rect id="Container" stroke="#000000" stroke-width="2" x="1" y="21" width="66" height="54"></rect>
                    <rect id="Rectangle" fill="#F1F1F1" x="2.0168457" y="22.0131106" width="64.0014648" height="52"></rect>
                    <g id="Icon-color" transform="translate(25.000000, 38.000000)">
                        <g style="fill: #1A1A1A;" id="Mask">
                            <path d="M3.83891613,6.72131613 C3.83891613,8.31305806 5.12872258,9.60286452 6.72046452,9.60286452 C8.31065806,9.60286452 9.60046452,8.31305806 9.60046452,6.72131613 C9.60046452,5.13034839 8.31065806,3.84054194 6.72046452,3.84054194 C5.12872258,3.84054194 3.83891613,5.13034839 3.83891613,6.72131613 M7.68123871,6.72131613 C7.68123871,7.25163871 7.24923871,7.68131613 6.72046452,7.68131613 C6.19014194,7.68131613 5.75969032,7.25163871 5.75969032,6.72131613 C5.75969032,6.19176774 6.19014194,5.76209032 6.72046452,5.76209032 C7.24923871,5.76209032 7.68123871,6.19176774 7.68123871,6.72131613" id="Fill-77"></path>
                            <polygon id="Fill-78" points="19.8414194 3.84077419 19.8414194 1.15463195e-14 17.9214194 1.15463195e-14 17.9214194 3.84077419 14.0829677 3.84077419 14.0829677 5.76077419 17.9214194 5.76077419 17.9214194 9.60154839 19.8414194 9.60154839 19.8414194 5.76077419 23.6852903 5.76077419 23.6852903 3.84077419"></polygon>
                            <polygon id="Fill-79" points="17.9210323 21.1255742 1.92077419 21.1255742 1.92077419 1.92402581 16.0002581 1.92402581 16.0002581 0.0032516129 5.86197757e-14 0.0032516129 5.86197757e-14 23.0463484 19.8410323 23.0463484 19.8410323 11.5232516 17.9210323 11.5232516"></polygon>
                            <path d="M0.000464516129,15.7107871 C1.11298065,16.4485935 2.37259355,17.2847226 4.43581935,17.2847226 C6.49904516,17.2847226 7.75943226,16.4485935 8.87194839,15.7107871 C9.86446452,15.0519484 10.722271,14.4836903 12.1398194,14.4836903 C13.5573677,14.4836903 14.4144,15.0519484 15.4069161,15.7107871 C16.5202065,16.4485935 17.7805935,17.2847226 19.8438194,17.2847226 L19.8438194,15.3639484 C18.3596903,15.3639484 17.4833032,14.7833032 16.4683355,14.1113032 C15.3751742,13.3851097 14.1364645,12.5636903 12.1398194,12.5636903 C10.1431742,12.5636903 8.90446452,13.3851097 7.81052903,14.110529 C6.79556129,14.7833032 5.91994839,15.3639484 4.43581935,15.3639484 C2.95246452,15.3639484 2.07607742,14.7833032 1.06188387,14.1113032 C-0.0320516129,13.3851097 0.506787097,14.2614968 0.000464516129,15.7107871" id="Fill-80"></path>
                        </g>
                        <rect x="0" y="0" width="24" height="24"></rect>
                    </g>
                </g>
            </g>
        </g>
    </g>
</svg>