<svg width="20px" height="20px" viewBox="0 0 20 20" version="1.1" xmlns="http://www.w3.org/2000/svg">
    <g id="Symbols" stroke="none" stroke-width="1" fill="none" fill-rule="evenodd">
        <g id="Navigaatio-/-Hankkeet-" transform="translate(-1009.000000, -22.000000)">
            <g id="Header">
                <g>
                    <g>
                        <rect id="Rectangle" fill="#FFFFFF" x="0" y="0" width="1440" height="64"></rect>
                        <g id="organisms/navigation/desktop">
                            <rect id="Rectangle-2-Copy-11" fill="#FFFFFF" x="0" y="0" width="1440" height="64"></rect>
                            <g id="Group-23" transform="translate(1009.000000, 22.000000)" fill="#000000" fill-rule="nonzero">
                                <g id="iconmonstr-task-1">
                                    <path d="M18.3333333,1.66666667 L18.3333333,18.3333333 L1.66666667,18.3333333 L1.66666667,1.66666667 L18.3333333,1.66666667 Z M20,0 L0,0 L0,20 L20,20 L20,0 Z M16.6666667,5.83333333 L10,5.83333333 L10,6.66666667 L16.6666667,6.66666667 L16.6666667,5.83333333 Z M16.6666667,10 L10,10 L10,10.8333333 L16.6666667,10.8333333 L16.6666667,10 Z M16.6666667,14.1666667 L10,14.1666667 L10,15 L16.6666667,15 L16.6666667,14.1666667 Z M7.90333333,4.74666667 L7.31166667,4.16666667 L5.18416667,6.33916667 L3.90166667,5.12916667 L3.32,5.72083333 L5.195,7.5 L7.90333333,4.74666667 L7.90333333,4.74666667 Z M7.90333333,8.91333333 L7.31166667,8.33333333 L5.185,10.5058333 L3.9025,9.29583333 L3.32083333,9.88666667 L5.195,11.6666667 L7.90333333,8.91333333 L7.90333333,8.91333333 Z M7.90333333,13.08 L7.31166667,12.5 L5.185,14.6725 L3.9025,13.4625 L3.32083333,14.0533333 L5.195,15.8333333 L7.90333333,13.08 L7.90333333,13.08 Z" id="Shape"></path>
                                </g>
                            </g>
                        </g>
                    </g>
                </g>
            </g>
        </g>
    </g>
</svg>