<svg width="20px" height="19px" viewBox="0 0 20 19" version="1.1" xmlns="http://www.w3.org/2000/svg">
    <title>iconmonstr-chart-2</title>
    <g id="Symbols" stroke="none" stroke-width="1" fill="none" fill-rule="evenodd">
        <g id="Navigaatio-/-Hankkeet-" transform="translate(-850.000000, -23.000000)">
            <g id="Header">
                <g>
                    <g>
                        <rect id="Rectangle" fill="#e8f3fc" x="0" y="0" width="1440" height="64"></rect>
                        <g id="organisms/navigation/desktop">
                            <rect id="Rectangle-2-Copy-11" fill="#e8f3fc" x="0" y="0" width="1440" height="64"></rect>
                            <g id="Group-24" transform="translate(850.000000, 23.000000)" fill="#000000">
                                <g id="Group-35">
                                    <g id="iconmonstr-chart-2">
                                        <path
                                            d="M4.16666667,6.66666667 L4.16666667,13.3333333 L2.5,13.3333333 L2.5,6.66666667 L4.16666667,6.66666667 Z M5.83333333,5 L0.833333333,5 L0.833333333,15 L5.83333333,15 L5.83333333,5 Z M10.8333333,1.66666667 L10.8333333,13.3333333 L9.16666667,13.3333333 L9.16666667,1.66666667 L10.8333333,1.66666667 Z M12.5,0 L7.5,0 L7.5,15 L12.5,15 L12.5,0 Z M17.5,10.8333333 L17.5,13.3333333 L15.8333333,13.3333333 L15.8333333,10.8333333 L17.5,10.8333333 Z M19.1666667,9.16666667 L14.1666667,9.16666667 L14.1666667,15 L19.1666667,15 L19.1666667,9.16666667 Z M20,16.6666667 L0,16.6666667 L0,18.3333333 L20,18.3333333 L20,16.6666667 Z"
                                            id="Shape"></path>
                                    </g>
                                </g>
                            </g>
                        </g>
                    </g>
                </g>
            </g>
        </g>
    </g>
</svg>