<svg width="21px" height="22px" viewBox="0 0 21 22" version="1.1" xmlns="http://www.w3.org/2000/svg">
    <g id="Symbols" stroke="none" stroke-width="1" fill="none" fill-rule="evenodd">
        <g id="Navigaatio-/-Hankkeet-" transform="translate(-1147.000000, -20.000000)">
            <g id="Header">
                <g>
                    <g>
                        <rect id="Rectangle" fill="#FFFFFF" x="0" y="0" width="1440" height="64"></rect>
                        <g id="organisms/navigation/desktop">
                            <rect id="Rectangle-2-Copy-11" fill="#FFFFFF" x="0" y="0" width="1440" height="64"></rect>
                            <g id="Group-22" transform="translate(1147.000000, 20.000000)">
                                <g id="atoms/icons/hankkeet-copy">
                                    <polygon id="Fill-79-Copy" fill="#000000" points="18.4964395 17.007065 5.87123589 17.007065 5.87123589 1.85584326 18.4964395 1.85584326 18.4964395 0.340232371 4.355625 0.340232371 4.355625 18.5226759 20.0114395 18.5226759 20.0114395 0.340232371 18.4964395 0.340232371"></polygon>
                                    <rect id="Rectangle" fill="#FFFFFF" x="0.4715892" y="4.16625" width="14.3925" height="17.04375"></rect>
                                    <polygon id="Fill-79" fill="#000000" points="14.1408145 20.4568984 1.51561089 20.4568984 1.51561089 5.30567661 14.1408145 5.30567661 14.1408145 3.79006573 0 3.79006573 0 21.9725093 15.6558145 21.9725093 15.6558145 3.79006573 14.1408145 3.79006573"></polygon>
                                    <path d="M3.47228226,7.23989908 L12.1835323,7.23989908 L12.1835323,9.03710496 L3.47228226,9.03710496 L3.47228226,7.23989908 Z M3.47228226,16.72547 L12.1835323,16.72547 L12.1835323,18.5226759 L3.47228226,18.5226759 L3.47228226,16.72547 Z M3.47228226,11.9828888 L12.1835323,11.9828888 L12.1835323,13.7800947 L3.47228226,13.7800947 L3.47228226,11.9828888 Z" id="Shape" fill="#000000" fill-rule="nonzero"></path>
                                </g>
                            </g>
                        </g>
                    </g>
                </g>
            </g>
        </g>
    </g>
</svg>